# xmcd
#
# Track frame offsets:
# 150
# 19305
# 41577
# 58494
# 73722
# 88224
# 103680
# 126518
# 146035
# 159900
# 175077
# 193949
# 212195
# 227329
# 244172
# 270601
# 287728
#
# Disc length: 4125 seconds
#
# Revision: 0
# Processed by: cddbd v1.5.1PL0 Copyright (c) Steve Scherf et al.
# Submitted via: Audion 3.0.2 (http://www.panic.com/audion/)
#
DISCID=08101b11
DTITLE=tobey kieth - butch
DYEAR=1900
DGENRE=
TTITLE0=h
TTITLE1=h
TTITLE2=h
TTITLE3=h
TTITLE4=h
TTITLE5=h
TTITLE6=h
TTITLE7=h
TTITLE8=h
TTITLE9=h
TTITLE10=h
TTITLE11=h
TTITLE12=h
TTITLE13=h
TTITLE14=h
TTITLE15=h
TTITLE16=h
EXTD=
EXTT0=
EXTT1=
EXTT2=
EXTT3=
EXTT4=
EXTT5=
EXTT6=
EXTT7=
EXTT8=
EXTT9=
EXTT10=
EXTT11=
EXTT12=
EXTT13=
EXTT14=
EXTT15=
EXTT16=
PLAYORDER=
